<svg id="Ebene_1" data-name="Ebene 1" xmlns="http://www.w3.org/2000/svg" viewBox="0 0 250 250"><defs><style>.cls-1{fill:#fff;fill-rule:evenodd;}</style></defs><path d="M36.62,250H213.38A36.66,36.66,0,0,0,250,213.38V36.62A36.66,36.66,0,0,0,213.38,0H36.62A36.66,36.66,0,0,0,0,36.62V213.38A36.66,36.66,0,0,0,36.62,250Zm-22-213.38a22,22,0,0,1,22-22H213.38a22,22,0,0,1,22,22V213.38a22,22,0,0,1-22,22H36.62a22,22,0,0,1-22-22Z"/><rect x="31.11" y="31.11" width="187.79" height="187.79"/><path class="cls-1" d="M187,72.87H152.27L127.56,135,99.49,72.87H62.39V76l13.07,16-.18,61.69L62.36,171.25l0,2.92H98.88l.09-2.68L83.69,153.62l.4-49.92,32.23,70.47h3.89L148.84,102v58.69l-11.74,11.1v2.36H187v-2.83l-11.44-10.85-.16-74.61L187,76V72.87Z"/></svg>